<svg width="223" height="223" viewBox="0 0 223 223" fill="none" xmlns="http://www.w3.org/2000/svg">
  <circle cx="110.363" cy="111.825" r="99.438" fill="url(#paint0_linear_0_1)" />
  <path
    d="M215 111.5C215 168.661 168.661 215 111.5 215C54.3385 215 8 168.661 8 111.5C8 54.3385 54.3385 8 111.5 8C168.661 8 215 54.3385 215 111.5Z"
    stroke="#118242" stroke-width="14.6232" stroke-linecap="round" stroke-linejoin="round" />
  <path
    d="M109.631 84.6095V165.931M109.631 84.6095C109.631 84.6095 109.631 75.2714 109.631 72.0985C109.631 65.1889 115.233 59.5875 122.142 59.5875C129.052 59.5875 134.653 65.1889 134.653 72.0985C134.653 79.0081 129.052 84.6095 122.142 84.6095C118.406 84.6095 109.631 84.6095 109.631 84.6095ZM109.631 84.6095C109.631 84.6095 109.631 72.4921 109.631 68.9708C109.631 60.3337 102.63 53.332 93.9927 53.332C85.3557 53.332 78.354 60.3337 78.354 68.9708C78.354 77.6078 85.3557 84.6095 93.9927 84.6095C99.1085 84.6095 109.631 84.6095 109.631 84.6095ZM65.843 109.631H153.42M65.843 109.631C58.9334 109.631 53.332 104.03 53.332 97.1205C53.332 90.2109 58.9334 84.6095 65.843 84.6095H153.42C160.33 84.6095 165.931 90.2109 165.931 97.1205C165.931 104.03 160.33 109.631 153.42 109.631M65.843 109.631L65.843 153.42C65.843 160.33 71.4444 165.931 78.354 165.931H140.909C147.819 165.931 153.42 160.33 153.42 153.42V109.631"
    stroke="#118242" stroke-width="12.511" stroke-linecap="round" stroke-linejoin="round" />
  <defs>
    <linearGradient id="paint0_linear_0_1" x1="68.6864" y1="-5.89208" x2="217.112" y2="304.121"
      gradientUnits="userSpaceOnUse">
      <stop stop-color="white" />
      <stop offset="1" stop-color="#31C170" />
    </linearGradient>
  </defs>
</svg>